# xmcd
#
# Track frame offsets:
#	150
#	15254
#	29226
#	41121
#	53719
#	65005
#	76722
#	79904
#	93607
#	105492
#	117397
#	129102
#	140491
#	153706
#	167317
#
# Disc length: 2419 seconds
#
# Revision: 1
# Processed by: cddbd v1.4PL0 Copyright (c) Steve Scherf et al.
# Submitted via: audiograbber 1.81.03
#
DISCID=be09710f
DTITLE=Glen Campbell - The Very Best Of 
DYEAR=1987
DGENRE=Country
TTITLE0=Rhinesstone Cowboy
TTITLE1=Wichita Lineman
TTITLE2=Galveston
TTITLE3=By The Time I Get To Phoenix
TTITLE4=Try A Little Kindness
TTITLE5=Hey Little One
TTITLE6=Where's The Play Ground Susie
TTITLE7=Gentle On My Mind
TTITLE8=Dreams Of The Every Day Housewife
TTITLE9=All I Have To Do Is Dream
TTITLE10=Dream Baby (How Long Must I Dream)
TTITLE11=It's Only Make Believe
TTITLE12=Sunflower
TTITLE13=Southern Nights
TTITLE14=Country Boy (You Got Your Feet In L.A.)
EXTD=
EXTT0=
EXTT1=
EXTT2=
EXTT3=
EXTT4=
EXTT5=
EXTT6=
EXTT7=
EXTT8=
EXTT9=
EXTT10=
EXTT11=
EXTT12=
EXTT13=
EXTT14=
PLAYORDER=
